PathFileType	4	(x/y/z)	S04_BK_Cal.trc
DataRate	CameraRate	NumFrames	NumMarkers	Units	OrigDataRate	OrigDataStartFrame	OrigNumFrames
240	240	9	51	mm	240	1801	2400
Frame#	Time	Sternum			R.Acromium			L.Acromium			Top.Head			R.ASIS			L.ASIS			R.PSIS			L.PSIS			R.Great.Tro			L.Great.Tro			R.Iliac.Crest			L.Iliac.Crest			V.Sacral			R.Thigh.Upper.Post			R.Thigh.Lower.Ant			R.Thigh.Lower.Post			R.Thigh.Upper.Ant			R.Knee.Lat			R.Knee.Med			R.Shank.Upper.Post			R.Shank.Lower.Ant			R.Shank.Lower.Post			R.Shank.Upper.Ant			R.Ankle.Lat			R.Ankle.Med			R.Heel.Upper			R.Heel.Med			R.Heel.Lat			R.Toe.Lat			R.Toe.Med			R.Toe.Tip			L.Thigh.Upper.Post			L.Thigh.Lower.Ant			L.Thigh.Lower.Post			L.Thigh.Upper.Ant			L.Knee.Lat			L.Knee.Med			L.Shank.Upper.Post			L.Shank.Lower.Ant			L.Shank.Lower.Post			L.Shank.Upper.Ant			L.Ankle.Lat			L.Ankle.Med			L.Heel.Upper			L.Heel.Med			L.Heel.Lat			L.Toe.Lat			L.Toe.Med			L.Toe.Tip			Cervical.Spine			Back			
		X1	Y1	Z1	X2	Y2	Z2	X3	Y3	Z3	X4	Y4	Z4	X5	Y5	Z5	X6	Y6	Z6	X7	Y7	Z7	X8	Y8	Z8	X9	Y9	Z9	X10	Y10	Z10	X11	Y11	Z11	X12	Y12	Z12	X13	Y13	Z13	X14	Y14	Z14	X15	Y15	Z15	X16	Y16	Z16	X17	Y17	Z17	X18	Y18	Z18	X19	Y19	Z19	X20	Y20	Z20	X21	Y21	Z21	X22	Y22	Z22	X23	Y23	Z23	X24	Y24	Z24	X25	Y25	Z25	X26	Y26	Z26	X27	Y27	Z27	X28	Y28	Z28	X29	Y29	Z29	X30	Y30	Z30	X31	Y31	Z31	X32	Y32	Z32	X33	Y33	Z33	X34	Y34	Z34	X35	Y35	Z35	X36	Y36	Z36	X37	Y37	Z37	X38	Y38	Z38	X39	Y39	Z39	X40	Y40	Z40	X41	Y41	Z41	X42	Y42	Z42	X43	Y43	Z43	X44	Y44	Z44	X45	Y45	Z45	X46	Y46	Z46	X47	Y47	Z47	X48	Y48	Z48	X49	Y49	Z49	X50	Y50	Z50	X51	Y51	Z51	

1801	7.5	348.18	1221.1	290.7	225.01	1451	471.02	203.53	1440.5	124.93	225.05	1771.3	288.37	314.81	937.13	430.42	314.97	951.38	182.16	101.83	977.78	332.07	108.65	980.88	249.02	225.77	865.61	497.7	202.75	869.32	112.75	236.59	1031	471.96	219.05	1035.8	135.44	83.73	937.44	290.55	301.69	615.91	511.77	401.96	561.21	489.38	331.8	529.98	500.88	373.01	667.69	501.87	370.66	470.47	494.86	359.07	458.61	367.41	230.94	287.66	504.61	264.66	188.22	463.37	205.47	221.61	491.92	288.33	255.25	484.76	166.63	110.8	477.94	190.77	115.64	388.69	97.95	75.929	421.41	108.15	45.106	392.24	98.556	44.654	456.83	263.75	39.871	519.24	311.37	39.451	402.89	369.37	56.062	457.06	259.64	634.69	103.26	368.68	572.55	88.597	300.26	554.53	105.72	324.13	651.84	85.106	365.76	478.33	99.365	381.45	456.78	223.5	230.35	342.25	92.688	266.7	237.4	86.47	210.01	267.03	94.092	287.03	311.29	83.305	179.04	104.92	97.777	187.05	111.29	191.94	101.48	73.305	141.45	108.69	47.556	174.92	105.23	46.335	112.97	288.02	42.586	69.664	321.64	47.826	184.73	377.8	57.035	134	171.8	1494.4	302.53	90.669	1239.6	284.91
1802	7.5042	348.18	1221.1	290.7	225.02	1451	471.01	203.54	1440.5	124.92	225.06	1771.3	288.36	314.82	937.11	430.43	314.97	951.37	182.16	101.84	977.76	332.08	108.65	980.87	249.02	225.78	865.61	497.7	202.75	869.31	112.75	236.59	1031	471.96	219.05	1035.8	135.44	83.73	937.44	290.56	301.69	615.9	511.77	401.96	561.21	489.39	331.8	529.97	500.88	373.02	667.68	501.88	370.67	470.46	494.86	359.08	458.61	367.42	230.95	287.65	504.61	264.66	188.22	463.37	205.48	221.61	491.92	288.34	255.24	484.75	166.63	110.81	477.94	190.77	115.64	388.69	97.951	75.93	421.41	108.18	45.089	392.25	98.557	44.654	456.83	263.75	39.87	519.24	311.37	39.451	402.89	369.37	56.061	457.06	259.64	634.69	103.27	368.69	572.55	88.599	300.26	554.53	105.73	324.13	651.84	85.112	365.77	478.32	99.368	381.45	456.78	223.5	230.36	342.25	92.689	266.7	237.39	86.471	210.01	267.03	94.093	287.04	311.29	83.307	179.04	104.92	97.777	187.05	111.29	191.94	101.48	73.304	141.45	108.69	47.556	174.92	105.23	46.334	112.96	288.02	42.585	69.664	321.64	47.825	184.73	377.8	57.036	134	171.81	1494.4	302.53	90.67	1239.6	284.91
1803	7.5083	348.18	1221.1	290.7	225.02	1451	471.01	203.54	1440.5	124.92	225.06	1771.3	288.35	314.82	937.1	430.43	314.97	951.36	182.16	101.84	977.75	332.08	108.65	980.86	249.03	225.78	865.6	497.7	202.75	869.3	112.75	236.59	1031	471.97	219.05	1035.8	135.44	83.729	937.44	290.57	301.69	615.9	511.77	401.97	561.2	489.4	331.81	529.96	500.89	373.02	667.68	501.89	370.67	470.46	494.87	359.1	458.6	367.42	230.95	287.65	504.61	264.67	188.22	463.37	205.48	221.6	491.92	288.35	255.22	484.75	166.62	110.81	477.93	190.77	115.64	388.69	97.952	75.931	421.41	108.2	45.072	392.27	98.557	44.654	456.83	263.75	39.868	519.24	311.37	39.451	402.89	369.37	56.06	457.06	259.64	634.68	103.27	368.69	572.54	88.6	300.26	554.52	105.73	324.13	651.83	85.119	365.78	478.32	99.371	381.46	456.78	223.51	230.36	342.25	92.69	266.71	237.39	86.472	210.02	267.03	94.093	287.04	311.29	83.308	179.04	104.92	97.777	187.05	111.29	191.94	101.48	73.303	141.45	108.69	47.555	174.92	105.23	46.334	112.96	288.02	42.585	69.664	321.64	47.825	184.73	377.8	57.037	134	171.81	1494.4	302.52	90.67	1239.6	284.91
1804	7.5125	348.18	1221.1	290.69	225.03	1451	471.01	203.55	1440.5	124.91	225.07	1771.2	288.34	314.83	937.08	430.43	314.97	951.36	182.16	101.84	977.74	332.09	108.65	980.85	249.03	225.79	865.59	497.7	202.75	869.29	112.75	236.6	1031	471.97	219.05	1035.8	135.43	83.729	937.43	290.58	301.7	615.9	511.77	401.98	561.19	489.41	331.82	529.96	500.89	373.03	667.67	501.9	370.68	470.45	494.87	359.11	458.6	367.43	230.96	287.65	504.61	264.67	188.21	463.37	205.49	221.6	491.92	288.35	255.21	484.75	166.62	110.81	477.93	190.77	115.64	388.69	97.953	75.932	421.41	108.23	45.056	392.28	98.557	44.654	456.83	263.75	39.866	519.24	311.37	39.451	402.89	369.37	56.06	457.07	259.64	634.67	103.28	368.69	572.54	88.601	300.27	554.52	105.73	324.13	651.83	85.125	365.78	478.31	99.373	381.47	456.77	223.51	230.37	342.24	92.691	266.71	237.38	86.473	210.02	267.03	94.093	287.04	311.28	83.31	179.04	104.92	97.777	187.05	111.29	191.94	101.48	73.303	141.45	108.69	47.555	174.92	105.23	46.333	112.96	288.02	42.584	69.664	321.64	47.825	184.73	377.8	57.039	134	171.81	1494.4	302.52	90.669	1239.5	284.91
1805	7.5167	348.18	1221.1	290.69	225.03	1451	471	203.55	1440.5	124.91	225.07	1771.2	288.34	314.84	937.06	430.43	314.97	951.35	182.16	101.84	977.73	332.1	108.65	980.84	249.04	225.79	865.58	497.7	202.75	869.29	112.75	236.6	1030.9	471.97	219.04	1035.7	135.43	83.729	937.43	290.58	301.7	615.89	511.77	401.99	561.19	489.42	331.82	529.95	500.89	373.03	667.67	501.91	370.69	470.45	494.88	359.12	458.59	367.44	230.96	287.65	504.61	264.67	188.21	463.37	205.49	221.59	491.92	288.36	255.2	484.75	166.62	110.81	477.93	190.77	115.64	388.69	97.954	75.932	421.41	108.25	45.041	392.29	98.557	44.654	456.83	263.75	39.864	519.24	311.37	39.451	402.89	369.37	56.059	457.07	259.64	634.67	103.29	368.69	572.53	88.601	300.27	554.52	105.74	324.13	651.83	85.131	365.78	478.31	99.376	381.47	456.77	223.51	230.37	342.24	92.691	266.72	237.38	86.474	210.02	267.02	94.093	287.05	311.28	83.311	179.04	104.92	97.778	187.05	111.28	191.94	101.48	73.302	141.45	108.69	47.554	174.92	105.23	46.333	112.96	288.02	42.584	69.664	321.64	47.825	184.73	377.8	57.041	134	171.82	1494.3	302.51	90.669	1239.5	284.91
1806	7.5208	348.18	1221	290.69	225.04	1451	471	203.55	1440.5	124.9	225.08	1771.2	288.33	314.84	937.05	430.44	314.97	951.34	182.16	101.84	977.72	332.1	108.65	980.83	249.05	225.8	865.57	497.71	202.75	869.28	112.75	236.6	1030.9	471.98	219.04	1035.7	135.43	83.729	937.43	290.59	301.7	615.89	511.77	402	561.18	489.43	331.83	529.94	500.9	373.04	667.66	501.92	370.69	470.44	494.89	359.14	458.59	367.44	230.96	287.64	504.61	264.68	188.2	463.37	205.5	221.59	491.92	288.36	255.19	484.75	166.62	110.81	477.93	190.77	115.64	388.69	97.955	75.932	421.41	108.27	45.028	392.3	98.558	44.653	456.83	263.75	39.862	519.24	311.37	39.451	402.89	369.37	56.059	457.07	259.64	634.66	103.29	368.69	572.53	88.602	300.27	554.51	105.74	324.13	651.82	85.138	365.79	478.31	99.378	381.48	456.76	223.51	230.37	342.24	92.692	266.72	237.38	86.475	210.03	267.02	94.094	287.05	311.28	83.313	179.04	104.91	97.778	187.05	111.28	191.94	101.48	73.3	141.45	108.69	47.554	174.92	105.23	46.332	112.96	288.02	42.583	69.664	321.64	47.824	184.73	377.8	57.042	134	171.82	1494.3	302.51	90.668	1239.5	284.91
1807	7.525	348.18	1221	290.68	225.04	1451	470.99	203.55	1440.5	124.9	225.09	1771.2	288.32	314.85	937.03	430.44	314.97	951.33	182.16	101.84	977.71	332.11	108.65	980.82	249.05	225.81	865.56	497.71	202.74	869.27	112.76	236.61	1030.9	471.98	219.04	1035.7	135.43	83.729	937.42	290.6	301.71	615.88	511.77	402.01	561.18	489.44	331.84	529.94	500.9	373.05	667.66	501.93	370.7	470.44	494.89	359.15	458.58	367.45	230.96	287.64	504.61	264.68	188.2	463.37	205.5	221.58	491.92	288.36	255.18	484.75	166.62	110.81	477.93	190.77	115.64	388.69	97.956	75.932	421.41	108.29	45.017	392.31	98.558	44.653	456.83	263.75	39.86	519.24	311.37	39.451	402.89	369.37	56.059	457.07	259.65	634.66	103.3	368.69	572.53	88.602	300.27	554.51	105.75	324.13	651.82	85.144	365.79	478.3	99.379	381.48	456.76	223.51	230.38	342.24	92.693	266.72	237.37	86.477	210.03	267.02	94.094	287.05	311.28	83.314	179.04	104.91	97.779	187.05	111.28	191.94	101.47	73.299	141.45	108.69	47.553	174.92	105.23	46.331	112.96	288.02	42.583	69.664	321.64	47.824	184.73	377.8	57.044	134	171.82	1494.3	302.51	90.667	1239.5	284.91
1808	7.5292	348.17	1221	290.68	225.05	1451	470.99	203.55	1440.5	124.9	225.1	1771.2	288.31	314.86	937.02	430.44	314.97	951.33	182.16	101.85	977.7	332.12	108.65	980.81	249.06	225.82	865.56	497.71	202.74	869.26	112.76	236.61	1030.9	471.98	219.03	1035.7	135.43	83.729	937.42	290.62	301.71	615.88	511.77	402.01	561.17	489.45	331.84	529.93	500.9	373.05	667.66	501.94	370.7	470.43	494.9	359.16	458.58	367.45	230.97	287.64	504.61	264.68	188.2	463.37	205.51	221.58	491.92	288.37	255.17	484.75	166.61	110.81	477.93	190.77	115.64	388.69	97.957	75.932	421.41	108.3	45.009	392.32	98.558	44.652	456.83	263.74	39.858	519.25	311.37	39.451	402.89	369.37	56.059	457.07	259.65	634.65	103.31	368.69	572.52	88.603	300.27	554.5	105.75	324.13	651.82	85.15	365.8	478.3	99.381	381.49	456.75	223.51	230.38	342.24	92.694	266.72	237.37	86.478	210.03	267.02	94.095	287.06	311.27	83.315	179.04	104.91	97.78	187.05	111.28	191.94	101.47	73.298	141.45	108.69	47.553	174.92	105.23	46.331	112.96	288.02	42.582	69.664	321.64	47.824	184.73	377.8	57.046	134	171.82	1494.3	302.5	90.665	1239.5	284.92
1809	7.5333	348.17	1221	290.67	225.05	1451	470.99	203.55	1440.4	124.89	225.11	1771.2	288.3	314.87	937.01	430.44	314.97	951.32	182.16	101.85	977.7	332.13	108.65	980.8	249.07	225.82	865.55	497.72	202.74	869.25	112.76	236.62	1030.9	471.99	219.03	1035.7	135.43	83.729	937.42	290.63	301.72	615.88	511.77	402.02	561.17	489.46	331.85	529.93	500.9	373.06	667.65	501.95	370.71	470.43	494.9	359.17	458.57	367.45	230.97	287.64	504.61	264.69	188.19	463.37	205.51	221.57	491.92	288.37	255.16	484.75	166.62	110.81	477.93	190.77	115.64	388.69	97.958	75.931	421.41	108.31	45.003	392.33	98.558	44.652	456.83	263.74	39.856	519.25	311.37	39.452	402.89	369.37	56.059	457.07	259.65	634.65	103.32	368.69	572.52	88.603	300.27	554.5	105.76	324.13	651.81	85.157	365.8	478.3	99.382	381.49	456.75	223.51	230.39	342.23	92.696	266.73	237.37	86.479	210.04	267.02	94.095	287.06	311.27	83.316	179.04	104.91	97.781	187.05	111.28	191.94	101.47	73.297	141.45	108.69	47.552	174.92	105.23	46.33	112.96	288.02	42.582	69.664	321.64	47.824	184.73	377.8	57.047	134	171.83	1494.3	302.5	90.664	1239.5	284.92
